STARTFONT 2.1
COMMENT $XFree86: xc/fonts/bdf/misc/micro.bdf,v 1.1 1999/09/25 14:36:34 dawes Exp $
FONT micro
SIZE 4 75 75
FONTBOUNDINGBOX 4 5 0 0
STARTPROPERTIES 3
FONT_DESCENT 0
FONT_ASCENT 5
COPYRIGHT "Public domain font.  Share and enjoy."
ENDPROPERTIES
CHARS 128
STARTCHAR C000
ENCODING 0
SWIDTH 1000 0
DWIDTH 4 0
BBX 4 5 0 0
BITMAP
00
e0
e0
e0
00
ENDCHAR
STARTCHAR C001
ENCODING 1
SWIDTH 1000 0
DWIDTH 4 0
BBX 4 5 0 0
BITMAP
40
40
40
60
40
ENDCHAR
STARTCHAR C002
ENCODING 2
SWIDTH 1000 0
DWIDTH 4 0
BBX 4 5 0 0
BITMAP
00
00
a0
c0
a0
ENDCHAR
STARTCHAR C003
ENCODING 3
SWIDTH 1000 0
DWIDTH 4 0
BBX 4 5 0 0
BITMAP
60
a0
e0
a0
c0
ENDCHAR
STARTCHAR C004
ENCODING 4
SWIDTH 1000 0
DWIDTH 4 0
BBX 4 5 0 0
BITMAP
00
40
e0
a0
00
ENDCHAR
STARTCHAR C005
ENCODING 5
SWIDTH 1000 0
DWIDTH 4 0
BBX 4 5 0 0
BITMAP
00
00
e0
20
00
ENDCHAR
STARTCHAR C006
ENCODING 6
SWIDTH 1000 0
DWIDTH 4 0
BBX 4 5 0 0
BITMAP
40
80
c0
80
40
ENDCHAR
STARTCHAR C007
ENCODING 7
SWIDTH 1000 0
DWIDTH 4 0
BBX 4 5 0 0
BITMAP
00
00
e0
a0
a0
ENDCHAR
STARTCHAR C010
ENCODING 8
SWIDTH 1000 0
DWIDTH 4 0
BBX 4 5 0 0
BITMAP
80
40
40
40
a0
ENDCHAR
STARTCHAR C011
ENCODING 9
SWIDTH 1000 0
DWIDTH 4 0
BBX 4 5 0 0
BITMAP
00
a0
40
c0
80
ENDCHAR
STARTCHAR C012
ENCODING 10
SWIDTH 1000 0
DWIDTH 4 0
BBX 4 5 0 0
BITMAP
60
80
40
a0
c0
ENDCHAR
STARTCHAR C013
ENCODING 11
SWIDTH 1000 0
DWIDTH 4 0
BBX 4 5 0 0
BITMAP
40
60
40
40
40
ENDCHAR
STARTCHAR C014
ENCODING 12
SWIDTH 1000 0
DWIDTH 4 0
BBX 4 5 0 0
BITMAP
00
40
e0
40
e0
ENDCHAR
STARTCHAR C015
ENCODING 13
SWIDTH 1000 0
DWIDTH 4 0
BBX 4 5 0 0
BITMAP
a0
00
40
e0
40
ENDCHAR
STARTCHAR C016
ENCODING 14
SWIDTH 1000 0
DWIDTH 4 0
BBX 4 5 0 0
BITMAP
40
00
40
00
40
ENDCHAR
STARTCHAR C017
ENCODING 15
SWIDTH 1000 0
DWIDTH 4 0
BBX 4 5 0 0
BITMAP
c0
20
60
a0
c0
ENDCHAR
STARTCHAR C020
ENCODING 16
SWIDTH 1000 0
DWIDTH 4 0
BBX 4 5 0 0
BITMAP
00
60
80
80
60
ENDCHAR
STARTCHAR C021
ENCODING 17
SWIDTH 1000 0
DWIDTH 4 0
BBX 4 5 0 0
BITMAP
00
c0
20
20
c0
ENDCHAR
STARTCHAR C022
ENCODING 18
SWIDTH 1000 0
DWIDTH 4 0
BBX 4 5 0 0
BITMAP
40
a0
a0
a0
00
ENDCHAR
STARTCHAR C023
ENCODING 19
SWIDTH 1000 0
DWIDTH 4 0
BBX 4 5 0 0
BITMAP
a0
a0
a0
40
00
ENDCHAR
STARTCHAR C024
ENCODING 20
SWIDTH 1000 0
DWIDTH 4 0
BBX 4 5 0 0
BITMAP
a0
e0
a0
a0
40
ENDCHAR
STARTCHAR C025
ENCODING 21
SWIDTH 1000 0
DWIDTH 4 0
BBX 4 5 0 0
BITMAP
e0
20
60
20
e0
ENDCHAR
STARTCHAR C026
ENCODING 22
SWIDTH 1000 0
DWIDTH 4 0
BBX 4 5 0 0
BITMAP
a0
00
a0
40
a0
ENDCHAR
STARTCHAR C027
ENCODING 23
SWIDTH 1000 0
DWIDTH 4 0
BBX 4 5 0 0
BITMAP
40
20
e0
80
40
ENDCHAR
STARTCHAR C030
ENCODING 24
SWIDTH 1000 0
DWIDTH 4 0
BBX 4 5 0 0
BITMAP
20
60
e0
60
20
ENDCHAR
STARTCHAR C031
ENCODING 25
SWIDTH 1000 0
DWIDTH 4 0
BBX 4 5 0 0
BITMAP
80
c0
e0
c0
80
ENDCHAR
STARTCHAR C032
ENCODING 26
SWIDTH 1000 0
DWIDTH 4 0
BBX 4 5 0 0
BITMAP
20
e0
40
e0
80
ENDCHAR
STARTCHAR C033
ENCODING 27
SWIDTH 1000 0
DWIDTH 4 0
BBX 4 5 0 0
BITMAP
40
e0
a0
e0
40
ENDCHAR
STARTCHAR C034
ENCODING 28
SWIDTH 1000 0
DWIDTH 4 0
BBX 4 5 0 0
BITMAP
20
40
80
40
e0
ENDCHAR
STARTCHAR C035
ENCODING 29
SWIDTH 1000 0
DWIDTH 4 0
BBX 4 5 0 0
BITMAP
80
40
20
40
e0
ENDCHAR
STARTCHAR C036
ENCODING 30
SWIDTH 1000 0
DWIDTH 4 0
BBX 4 5 0 0
BITMAP
e0
00
e0
00
e0
ENDCHAR
STARTCHAR C037
ENCODING 31
SWIDTH 1000 0
DWIDTH 4 0
BBX 4 5 0 0
BITMAP
00
a0
a0
40
00
ENDCHAR
STARTCHAR C040
ENCODING 32
SWIDTH 1000 0
DWIDTH 4 0
BBX 4 5 0 0
BITMAP
00
00
00
00
00
ENDCHAR
STARTCHAR !
ENCODING 33
SWIDTH 1000 0
DWIDTH 4 0
BBX 4 5 0 0
BITMAP
c0
c0
c0
00
c0
ENDCHAR
STARTCHAR "
ENCODING 34
SWIDTH 1000 0
DWIDTH 4 0
BBX 4 5 0 0
BITMAP
a0
a0
00
00
00
ENDCHAR
STARTCHAR #
ENCODING 35
SWIDTH 1000 0
DWIDTH 4 0
BBX 4 5 0 0
BITMAP
a0
e0
a0
e0
a0
ENDCHAR
STARTCHAR $
ENCODING 36
SWIDTH 1000 0
DWIDTH 4 0
BBX 4 5 0 0
BITMAP
40
e0
c0
60
e0
ENDCHAR
STARTCHAR %
ENCODING 37
SWIDTH 1000 0
DWIDTH 4 0
BBX 4 5 0 0
BITMAP
a0
60
c0
a0
00
ENDCHAR
STARTCHAR &
ENCODING 38
SWIDTH 1000 0
DWIDTH 4 0
BBX 4 5 0 0
BITMAP
40
40
e0
c0
40
ENDCHAR
STARTCHAR '
ENCODING 39
SWIDTH 1000 0
DWIDTH 4 0
BBX 4 5 0 0
BITMAP
20
60
00
00
00
ENDCHAR
STARTCHAR (
ENCODING 40
SWIDTH 1000 0
DWIDTH 4 0
BBX 4 5 0 0
BITMAP
20
40
40
40
20
ENDCHAR
STARTCHAR )
ENCODING 41
SWIDTH 1000 0
DWIDTH 4 0
BBX 4 5 0 0
BITMAP
80
40
40
40
80
ENDCHAR
STARTCHAR *
ENCODING 42
SWIDTH 1000 0
DWIDTH 4 0
BBX 4 5 0 0
BITMAP
a0
40
e0
40
a0
ENDCHAR
STARTCHAR +
ENCODING 43
SWIDTH 1000 0
DWIDTH 4 0
BBX 4 5 0 0
BITMAP
00
40
e0
40
00
ENDCHAR
STARTCHAR ,
ENCODING 44
SWIDTH 1000 0
DWIDTH 4 0
BBX 4 5 0 0
BITMAP
00
00
00
40
c0
ENDCHAR
STARTCHAR -
ENCODING 45
SWIDTH 1000 0
DWIDTH 4 0
BBX 4 5 0 0
BITMAP
00
00
e0
00
00
ENDCHAR
STARTCHAR .
ENCODING 46
SWIDTH 1000 0
DWIDTH 4 0
BBX 4 5 0 0
BITMAP
00
00
00
c0
c0
ENDCHAR
STARTCHAR /
ENCODING 47
SWIDTH 1000 0
DWIDTH 4 0
BBX 4 5 0 0
BITMAP
20
20
40
40
80
ENDCHAR
STARTCHAR 0
ENCODING 48
SWIDTH 1000 0
DWIDTH 4 0
BBX 4 5 0 0
BITMAP
40
a0
a0
a0
40
ENDCHAR
STARTCHAR 1
ENCODING 49
SWIDTH 1000 0
DWIDTH 4 0
BBX 4 5 0 0
BITMAP
40
c0
40
40
40
ENDCHAR
STARTCHAR 2
ENCODING 50
SWIDTH 1000 0
DWIDTH 4 0
BBX 4 5 0 0
BITMAP
c0
20
40
80
e0
ENDCHAR
STARTCHAR 3
ENCODING 51
SWIDTH 1000 0
DWIDTH 4 0
BBX 4 5 0 0
BITMAP
c0
20
60
20
e0
ENDCHAR
STARTCHAR 4
ENCODING 52
SWIDTH 1000 0
DWIDTH 4 0
BBX 4 5 0 0
BITMAP
a0
a0
a0
e0
20
ENDCHAR
STARTCHAR 5
ENCODING 53
SWIDTH 1000 0
DWIDTH 4 0
BBX 4 5 0 0
BITMAP
e0
80
c0
20
c0
ENDCHAR
STARTCHAR 6
ENCODING 54
SWIDTH 1000 0
DWIDTH 4 0
BBX 4 5 0 0
BITMAP
60
80
e0
a0
e0
ENDCHAR
STARTCHAR 7
ENCODING 55
SWIDTH 1000 0
DWIDTH 4 0
BBX 4 5 0 0
BITMAP
e0
20
20
40
40
ENDCHAR
STARTCHAR 8
ENCODING 56
SWIDTH 1000 0
DWIDTH 4 0
BBX 4 5 0 0
BITMAP
e0
a0
e0
a0
e0
ENDCHAR
STARTCHAR 9
ENCODING 57
SWIDTH 1000 0
DWIDTH 4 0
BBX 4 5 0 0
BITMAP
e0
a0
e0
20
c0
ENDCHAR
STARTCHAR :
ENCODING 58
SWIDTH 1000 0
DWIDTH 4 0
BBX 4 5 0 0
BITMAP
c0
c0
00
c0
c0
ENDCHAR
STARTCHAR ;
ENCODING 59
SWIDTH 1000 0
DWIDTH 4 0
BBX 4 5 0 0
BITMAP
c0
c0
00
40
c0
ENDCHAR
STARTCHAR <
ENCODING 60
SWIDTH 1000 0
DWIDTH 4 0
BBX 4 5 0 0
BITMAP
20
40
80
40
20
ENDCHAR
STARTCHAR =
ENCODING 61
SWIDTH 1000 0
DWIDTH 4 0
BBX 4 5 0 0
BITMAP
00
e0
00
e0
00
ENDCHAR
STARTCHAR >
ENCODING 62
SWIDTH 1000 0
DWIDTH 4 0
BBX 4 5 0 0
BITMAP
80
40
20
40
80
ENDCHAR
STARTCHAR ?
ENCODING 63
SWIDTH 1000 0
DWIDTH 4 0
BBX 4 5 0 0
BITMAP
e0
20
60
00
40
ENDCHAR
STARTCHAR @
ENCODING 64
SWIDTH 1000 0
DWIDTH 4 0
BBX 4 5 0 0
BITMAP
60
a0
c0
80
60
ENDCHAR
STARTCHAR A
ENCODING 65
SWIDTH 1000 0
DWIDTH 4 0
BBX 4 5 0 0
BITMAP
e0
a0
e0
a0
a0
ENDCHAR
STARTCHAR B
ENCODING 66
SWIDTH 1000 0
DWIDTH 4 0
BBX 4 5 0 0
BITMAP
e0
a0
c0
a0
e0
ENDCHAR
STARTCHAR C
ENCODING 67
SWIDTH 1000 0
DWIDTH 4 0
BBX 4 5 0 0
BITMAP
e0
80
80
80
e0
ENDCHAR
STARTCHAR D
ENCODING 68
SWIDTH 1000 0
DWIDTH 4 0
BBX 4 5 0 0
BITMAP
c0
a0
a0
a0
c0
ENDCHAR
STARTCHAR E
ENCODING 69
SWIDTH 1000 0
DWIDTH 4 0
BBX 4 5 0 0
BITMAP
e0
80
e0
80
e0
ENDCHAR
STARTCHAR F
ENCODING 70
SWIDTH 1000 0
DWIDTH 4 0
BBX 4 5 0 0
BITMAP
e0
80
e0
80
80
ENDCHAR
STARTCHAR G
ENCODING 71
SWIDTH 1000 0
DWIDTH 4 0
BBX 4 5 0 0
BITMAP
e0
80
a0
a0
e0
ENDCHAR
STARTCHAR H
ENCODING 72
SWIDTH 1000 0
DWIDTH 4 0
BBX 4 5 0 0
BITMAP
a0
a0
e0
a0
a0
ENDCHAR
STARTCHAR I
ENCODING 73
SWIDTH 1000 0
DWIDTH 4 0
BBX 4 5 0 0
BITMAP
e0
40
40
40
e0
ENDCHAR
STARTCHAR J
ENCODING 74
SWIDTH 1000 0
DWIDTH 4 0
BBX 4 5 0 0
BITMAP
20
20
20
a0
e0
ENDCHAR
STARTCHAR K
ENCODING 75
SWIDTH 1000 0
DWIDTH 4 0
BBX 4 5 0 0
BITMAP
a0
a0
c0
a0
a0
ENDCHAR
STARTCHAR L
ENCODING 76
SWIDTH 1000 0
DWIDTH 4 0
BBX 4 5 0 0
BITMAP
80
80
80
80
e0
ENDCHAR
STARTCHAR M
ENCODING 77
SWIDTH 1000 0
DWIDTH 4 0
BBX 4 5 0 0
BITMAP
a0
e0
a0
a0
a0
ENDCHAR
STARTCHAR N
ENCODING 78
SWIDTH 1000 0
DWIDTH 4 0
BBX 4 5 0 0
BITMAP
e0
a0
a0
a0
a0
ENDCHAR
STARTCHAR O
ENCODING 79
SWIDTH 1000 0
DWIDTH 4 0
BBX 4 5 0 0
BITMAP
e0
a0
a0
a0
e0
ENDCHAR
STARTCHAR P
ENCODING 80
SWIDTH 1000 0
DWIDTH 4 0
BBX 4 5 0 0
BITMAP
e0
a0
e0
80
80
ENDCHAR
STARTCHAR Q
ENCODING 81
SWIDTH 1000 0
DWIDTH 4 0
BBX 4 5 0 0
BITMAP
e0
a0
a0
c0
60
ENDCHAR
STARTCHAR R
ENCODING 82
SWIDTH 1000 0
DWIDTH 4 0
BBX 4 5 0 0
BITMAP
e0
a0
c0
a0
a0
ENDCHAR
STARTCHAR S
ENCODING 83
SWIDTH 1000 0
DWIDTH 4 0
BBX 4 5 0 0
BITMAP
e0
80
e0
20
e0
ENDCHAR
STARTCHAR T
ENCODING 84
SWIDTH 1000 0
DWIDTH 4 0
BBX 4 5 0 0
BITMAP
e0
40
40
40
40
ENDCHAR
STARTCHAR U
ENCODING 85
SWIDTH 1000 0
DWIDTH 4 0
BBX 4 5 0 0
BITMAP
a0
a0
a0
a0
e0
ENDCHAR
STARTCHAR V
ENCODING 86
SWIDTH 1000 0
DWIDTH 4 0
BBX 4 5 0 0
BITMAP
a0
a0
a0
a0
40
ENDCHAR
STARTCHAR W
ENCODING 87
SWIDTH 1000 0
DWIDTH 4 0
BBX 4 5 0 0
BITMAP
a0
a0
a0
e0
a0
ENDCHAR
STARTCHAR X
ENCODING 88
SWIDTH 1000 0
DWIDTH 4 0
BBX 4 5 0 0
BITMAP
a0
e0
40
e0
a0
ENDCHAR
STARTCHAR Y
ENCODING 89
SWIDTH 1000 0
DWIDTH 4 0
BBX 4 5 0 0
BITMAP
a0
a0
e0
40
40
ENDCHAR
STARTCHAR Z
ENCODING 90
SWIDTH 1000 0
DWIDTH 4 0
BBX 4 5 0 0
BITMAP
e0
20
40
80
e0
ENDCHAR
STARTCHAR [
ENCODING 91
SWIDTH 1000 0
DWIDTH 4 0
BBX 4 5 0 0
BITMAP
60
40
40
40
60
ENDCHAR
STARTCHAR \
ENCODING 92
SWIDTH 1000 0
DWIDTH 4 0
BBX 4 5 0 0
BITMAP
80
80
40
40
20
ENDCHAR
STARTCHAR ]
ENCODING 93
SWIDTH 1000 0
DWIDTH 4 0
BBX 4 5 0 0
BITMAP
c0
40
40
40
c0
ENDCHAR
STARTCHAR ^
ENCODING 94
SWIDTH 1000 0
DWIDTH 4 0
BBX 4 5 0 0
BITMAP
40
a0
00
00
00
ENDCHAR
STARTCHAR _
ENCODING 95
SWIDTH 1000 0
DWIDTH 4 0
BBX 4 5 0 0
BITMAP
00
00
00
00
e0
ENDCHAR
STARTCHAR `
ENCODING 96
SWIDTH 1000 0
DWIDTH 4 0
BBX 4 5 0 0
BITMAP
40
60
00
00
00
ENDCHAR
STARTCHAR a
ENCODING 97
SWIDTH 1000 0
DWIDTH 4 0
BBX 4 5 0 0
BITMAP
00
e0
60
a0
e0
ENDCHAR
STARTCHAR b
ENCODING 98
SWIDTH 1000 0
DWIDTH 4 0
BBX 4 5 0 0
BITMAP
80
e0
a0
a0
e0
ENDCHAR
STARTCHAR c
ENCODING 99
SWIDTH 1000 0
DWIDTH 4 0
BBX 4 5 0 0
BITMAP
00
e0
80
80
e0
ENDCHAR
STARTCHAR d
ENCODING 100
SWIDTH 1000 0
DWIDTH 4 0
BBX 4 5 0 0
BITMAP
20
e0
a0
a0
e0
ENDCHAR
STARTCHAR e
ENCODING 101
SWIDTH 1000 0
DWIDTH 4 0
BBX 4 5 0 0
BITMAP
00
e0
a0
c0
e0
ENDCHAR
STARTCHAR f
ENCODING 102
SWIDTH 1000 0
DWIDTH 4 0
BBX 4 5 0 0
BITMAP
60
80
c0
80
80
ENDCHAR
STARTCHAR g
ENCODING 103
SWIDTH 1000 0
DWIDTH 4 0
BBX 4 5 0 0
BITMAP
00
e0
a0
60
e0
ENDCHAR
STARTCHAR h
ENCODING 104
SWIDTH 1000 0
DWIDTH 4 0
BBX 4 5 0 0
BITMAP
80
e0
a0
a0
a0
ENDCHAR
STARTCHAR i
ENCODING 105
SWIDTH 1000 0
DWIDTH 4 0
BBX 4 5 0 0
BITMAP
00
40
40
40
40
ENDCHAR
STARTCHAR j
ENCODING 106
SWIDTH 1000 0
DWIDTH 4 0
BBX 4 5 0 0
BITMAP
00
20
20
a0
e0
ENDCHAR
STARTCHAR k
ENCODING 107
SWIDTH 1000 0
DWIDTH 4 0
BBX 4 5 0 0
BITMAP
80
a0
c0
c0
a0
ENDCHAR
STARTCHAR l
ENCODING 108
SWIDTH 1000 0
DWIDTH 4 0
BBX 4 5 0 0
BITMAP
c0
40
40
40
40
ENDCHAR
STARTCHAR m
ENCODING 109
SWIDTH 1000 0
DWIDTH 4 0
BBX 4 5 0 0
BITMAP
00
a0
e0
a0
a0
ENDCHAR
STARTCHAR n
ENCODING 110
SWIDTH 1000 0
DWIDTH 4 0
BBX 4 5 0 0
BITMAP
00
e0
a0
a0
a0
ENDCHAR
STARTCHAR o
ENCODING 111
SWIDTH 1000 0
DWIDTH 4 0
BBX 4 5 0 0
BITMAP
00
e0
a0
a0
e0
ENDCHAR
STARTCHAR p
ENCODING 112
SWIDTH 1000 0
DWIDTH 4 0
BBX 4 5 0 0
BITMAP
00
e0
a0
e0
80
ENDCHAR
STARTCHAR q
ENCODING 113
SWIDTH 1000 0
DWIDTH 4 0
BBX 4 5 0 0
BITMAP
00
e0
a0
e0
20
ENDCHAR
STARTCHAR r
ENCODING 114
SWIDTH 1000 0
DWIDTH 4 0
BBX 4 5 0 0
BITMAP
00
e0
a0
80
80
ENDCHAR
STARTCHAR s
ENCODING 115
SWIDTH 1000 0
DWIDTH 4 0
BBX 4 5 0 0
BITMAP
00
e0
c0
60
e0
ENDCHAR
STARTCHAR t
ENCODING 116
SWIDTH 1000 0
DWIDTH 4 0
BBX 4 5 0 0
BITMAP
40
e0
40
40
60
ENDCHAR
STARTCHAR u
ENCODING 117
SWIDTH 1000 0
DWIDTH 4 0
BBX 4 5 0 0
BITMAP
00
a0
a0
a0
e0
ENDCHAR
STARTCHAR v
ENCODING 118
SWIDTH 1000 0
DWIDTH 4 0
BBX 4 5 0 0
BITMAP
00
a0
a0
a0
40
ENDCHAR
STARTCHAR w
ENCODING 119
SWIDTH 1000 0
DWIDTH 4 0
BBX 4 5 0 0
BITMAP
00
a0
a0
e0
a0
ENDCHAR
STARTCHAR x
ENCODING 120
SWIDTH 1000 0
DWIDTH 4 0
BBX 4 5 0 0
BITMAP
00
a0
40
40
a0
ENDCHAR
STARTCHAR y
ENCODING 121
SWIDTH 1000 0
DWIDTH 4 0
BBX 4 5 0 0
BITMAP
00
a0
a0
60
c0
ENDCHAR
STARTCHAR z
ENCODING 122
SWIDTH 1000 0
DWIDTH 4 0
BBX 4 5 0 0
BITMAP
00
e0
60
c0
e0
ENDCHAR
STARTCHAR {
ENCODING 123
SWIDTH 1000 0
DWIDTH 4 0
BBX 4 5 0 0
BITMAP
60
40
c0
40
60
ENDCHAR
STARTCHAR |
ENCODING 124
SWIDTH 1000 0
DWIDTH 4 0
BBX 4 5 0 0
BITMAP
40
40
40
40
40
ENDCHAR
STARTCHAR }
ENCODING 125
SWIDTH 1000 0
DWIDTH 4 0
BBX 4 5 0 0
BITMAP
c0
40
60
40
c0
ENDCHAR
STARTCHAR ~
ENCODING 126
SWIDTH 1000 0
DWIDTH 4 0
BBX 4 5 0 0
BITMAP
00
c0
60
00
00
ENDCHAR
STARTCHAR C177
ENCODING 127
SWIDTH 1000 0
DWIDTH 4 0
BBX 4 5 0 0
BITMAP
60
40
40
40
c0
ENDCHAR
ENDFONT
